<svg id="Layer_1" enable-background="new 0 0 512 512" height="512" viewBox="0 0 512 512" width="512" xmlns="http://www.w3.org/2000/svg"><g><path d="m197.671 315.523c-109.171 0-197.671-27.65-197.671-61.759v118.967c27.745 25.795 105.76 44.377 197.671 44.377s169.926-18.582 197.671-44.377v-118.967c0 34.109-88.501 61.759-197.671 61.759z" fill="#80b4fb"/><path d="m106.312 308.541c-63.179-10.307-106.312-30.967-106.312-54.777v118.967c17.853 16.598 56.523 30.208 106.312 37.804z" fill="#0290f4"/><path d="m197.671 111.256c-109.171 0-197.671-13.061-197.671-47.169v98.205c0 34.108 88.5 61.758 197.671 61.758s197.671-27.65 197.671-61.758v-98.205c0 34.108-88.501 47.169-197.671 47.169z" fill="#80b4fb"/><path d="m106.312 107.462c-63.179-6.014-106.312-19.565-106.312-43.375v98.205c0 23.81 43.133 44.469 106.312 54.776z" fill="#0290f4"/><path d="m197.671 413.728c-109.171 0-197.671-27.651-197.671-61.759v95.961c0 34.108 88.5 61.758 197.671 61.758s197.671-27.65 197.671-61.758v-95.961c-.001 34.108-88.501 61.759-197.671 61.759z" fill="#9dc6fb"/><path d="m106.312 406.746c-63.179-10.307-106.312-30.967-106.312-54.777v95.961c0 23.81 43.133 44.47 106.312 54.776z" fill="#80b4fb"/><path d="m197.671 221.806c-109.171 0-197.671-27.65-197.671-61.758v95.96c0 34.108 88.5 61.759 197.671 61.759s197.671-27.65 197.671-61.759v-95.96c-.001 34.108-88.501 61.758-197.671 61.758z" fill="#9dc6fb"/><path d="m106.312 214.824c-63.179-10.307-106.312-30.966-106.312-54.776v95.96c0 23.81 43.133 44.47 106.312 54.777z" fill="#80b4fb"/><ellipse cx="197.671" cy="64.087" fill="#bed8fb" rx="197.671" ry="61.758"/><path d="m90.525 64.087c0-23.484 21.152-44.655 55.026-59.584-83.88 7.146-145.551 31.113-145.551 59.584 0 28.472 61.671 52.439 145.551 59.584-33.874-14.929-55.026-36.1-55.026-59.584z" fill="#9dc6fb"/><circle cx="395.355" cy="118.957" fill="#ffe181" r="116.645"/><path d="m333.997 118.957c0-54.896 37.925-100.926 89.001-113.341-8.863-2.154-18.118-3.304-27.644-3.304-64.421 0-116.645 52.224-116.645 116.645s52.224 116.645 116.645 116.645c9.526 0 18.781-1.15 27.644-3.304-51.076-12.414-89.001-58.445-89.001-113.341z" fill="#fec458"/><g><path d="m331.056 103.429c-.873 0-1.76-.149-2.628-.463-4.013-1.452-6.089-5.881-4.637-9.893 10.865-30.037 39.624-50.218 71.563-50.218 24.893 0 48.253 12.218 62.488 32.683 2.437 3.503 1.572 8.319-1.931 10.755-3.504 2.436-8.318 1.571-10.754-1.931-11.349-16.315-29.967-26.055-49.803-26.055-25.454 0-48.373 16.083-57.032 40.021-1.137 3.145-4.104 5.101-7.266 5.101z" fill="#ff656f"/></g><g><path d="m395.355 195.06c-25.745 0-49.549-12.876-63.677-34.444-2.338-3.569-1.34-8.358 2.23-10.696 3.568-2.338 8.358-1.342 10.697 2.229 11.262 17.194 30.234 27.459 50.75 27.459 25.465 0 48.388-16.092 57.041-40.044 1.45-4.014 5.879-6.089 9.892-4.642 4.013 1.45 6.091 5.878 4.641 9.891-10.857 30.054-39.621 50.247-71.574 50.247z" fill="#ff656f"/></g><path d="m461.968 114.948-28.815-21.498c-2.048-1.528-1.605-4.714.782-5.625l35.966-13.734c2.387-.911 4.84 1.168 4.332 3.672l-7.151 35.232c-.473 2.329-3.209 3.374-5.114 1.953z" fill="#ff656f"/><path d="m327.619 121.971 28.814 21.498c2.048 1.528 1.605 4.714-.782 5.625l-35.966 13.734c-2.387.911-4.841-1.168-4.332-3.672l7.151-35.232c.473-2.329 3.209-3.374 5.115-1.953z" fill="#ff656f"/><g fill="#ff4756"><path d="m449.336 86.41c-1.377-1.027-1.605-2.794-.895-4.125l-14.505 5.539c-2.387.911-2.83 4.097-.782 5.625l28.814 21.498c1.905 1.421 4.642.377 5.114-1.953l2.352-11.589z"/><path d="m332.48 153.233 4.871-24-9.733-7.261c-1.905-1.421-4.641-.376-5.114 1.953l-7.151 35.232c-.509 2.504 1.945 4.584 4.332 3.672l15.201-5.805c-1.587-.394-2.774-1.978-2.406-3.791z"/></g></g></svg>