<?xml version="1.0" standalone="no"?>
<!DOCTYPE svg PUBLIC "-//W3C//DTD SVG 20010904//EN"
 "http://www.w3.org/TR/2001/REC-SVG-20010904/DTD/svg10.dtd">
<svg version="1.0" xmlns="http://www.w3.org/2000/svg"
 width="512.000000pt" height="512.000000pt" viewBox="0 0 512.000000 512.000000"
 preserveAspectRatio="xMidYMid meet">

<g transform="translate(0.000000,512.000000) scale(0.100000,-0.100000)"
fill="#000000" stroke="none">
<path d="M2650 4735 c-502 -65 -956 -293 -1301 -653 -371 -386 -580 -866 -615
-1414 l-6 -108 -362 0 -361 0 485 -485 485 -485 483 482 482 483 -361 3 -362
2 6 108 c17 303 129 624 304 872 100 142 302 339 443 432 528 351 1173 391
1730 108 466 -238 788 -662 901 -1190 20 -92 23 -134 23 -330 0 -196 -3 -238
-23 -330 -112 -523 -432 -948 -891 -1184 -635 -327 -1371 -234 -1916 241 l-76
66 -171 -172 -172 -172 65 -60 c346 -320 783 -518 1258 -569 156 -17 452 -8
602 19 457 81 846 285 1176 615 313 314 512 684 598 1111 198 977 -292 1970
-1187 2405 -225 109 -442 174 -680 205 -140 18 -421 18 -557 0z"/>
<path d="M2682 2923 l3 -607 170 -102 c94 -55 326 -193 517 -306 l347 -206 92
155 c52 87 88 157 83 162 -5 4 -197 119 -426 256 l-418 247 0 504 0 504 -185
0 -185 0 2 -607z"/>
</g>
</svg>
