<?xml version="1.0" standalone="no"?>
<!DOCTYPE svg PUBLIC "-//W3C//DTD SVG 20010904//EN"
 "http://www.w3.org/TR/2001/REC-SVG-20010904/DTD/svg10.dtd">
<svg version="1.0" xmlns="http://www.w3.org/2000/svg"
 width="225.000000pt" height="225.000000pt" viewBox="0 0 225.000000 225.000000"
 preserveAspectRatio="xMidYMid meet">

<g transform="translate(0.000000,225.000000) scale(0.100000,-0.100000)"
fill="#000000" stroke="none">
<path d="M125 1990 c-11 -4 -31 -20 -45 -35 l-25 -27 0 -685 0 -685 33 -29 32
-29 370 0 370 0 0 -95 0 -95 -93 0 c-107 0 -137 -13 -137 -60 0 -62 -15 -60
499 -60 441 0 469 1 484 18 24 26 21 68 -5 86 -16 12 -47 16 -115 16 l-93 0 0
95 0 95 368 0 c324 0 370 2 391 16 51 36 51 35 51 731 0 725 2 699 -70 735
-33 17 -101 18 -1015 17 -539 0 -989 -4 -1000 -9z m1945 -690 l0 -560 -940 0
-940 0 0 560 0 560 940 0 940 0 0 -560z m-898 -627 c38 -34 8 -113 -42 -113
-24 0 -70 42 -70 63 0 8 9 26 21 41 24 30 63 34 91 9z"/>
<path d="M1214 1761 c-8 -40 -51 -49 -79 -18 l-20 23 -42 -30 -42 -29 18 -26
c17 -23 17 -27 4 -48 -10 -15 -25 -23 -44 -23 -29 0 -34 -8 -41 -70 -2 -20 3
-27 26 -35 42 -14 53 -60 20 -81 l-24 -16 32 -44 31 -43 24 19 c23 18 27 18
49 3 16 -10 24 -25 24 -44 0 -30 3 -31 73 -42 22 -3 27 0 27 17 0 29 11 42 40
49 19 5 30 1 45 -18 l20 -25 40 34 c39 33 40 34 22 54 -18 19 -18 22 -2 46 12
18 26 26 45 26 23 0 29 5 34 31 11 56 8 66 -23 72 -37 8 -50 55 -20 76 25 18
24 30 -10 70 -27 33 -29 34 -51 18 -20 -14 -26 -14 -50 -2 -22 11 -26 19 -22
43 3 26 0 30 -28 36 -59 11 -70 8 -76 -23z m104 -119 c41 -30 66 -85 59 -134
-18 -137 -187 -174 -265 -58 -45 66 -17 163 59 203 43 23 106 18 147 -11z"/>
<path d="M880 1330 c0 -47 -23 -64 -45 -34 -43 60 -36 59 -88 19 l-48 -36 32
-40 c26 -33 28 -40 14 -45 -8 -4 -33 -4 -54 0 -38 6 -38 5 -45 -32 -12 -75
-10 -79 39 -86 24 -4 47 -11 50 -16 3 -4 -13 -21 -35 -38 l-40 -29 36 -47 36
-47 33 25 c50 38 59 34 52 -23 -6 -48 -5 -49 25 -55 17 -3 43 -6 58 -6 25 0
28 4 34 45 4 24 11 47 15 50 5 2 21 -13 36 -35 15 -22 30 -40 32 -40 3 0 24
14 47 32 22 17 43 33 45 34 1 2 -9 18 -23 37 -39 51 -35 61 23 53 l50 -7 5 33
c14 84 15 82 -33 90 -24 4 -47 10 -50 14 -3 3 12 21 33 39 l39 32 -35 46 -35
46 -34 -24 c-51 -39 -62 -34 -54 24 l6 48 -38 6 c-78 13 -83 11 -83 -33z m80
-125 c102 -53 60 -215 -55 -215 -39 0 -82 29 -100 66 -19 41 -19 58 1 100 28
59 94 80 154 49z"/>
<path d="M1354 1231 c-8 -36 -17 -39 -37 -10 -14 20 -16 20 -41 4 -30 -20 -31
-23 -10 -53 15 -21 14 -22 -20 -22 -34 0 -36 -2 -36 -35 0 -31 3 -35 25 -35
30 0 33 -20 5 -38 l-21 -13 21 -29 c20 -28 23 -29 43 -15 32 22 40 19 34 -14
-5 -26 -3 -29 25 -35 33 -7 48 4 48 37 0 23 17 22 30 -3 13 -25 22 -25 51 -1
22 18 22 19 6 45 l-17 26 35 0 c33 0 35 2 35 35 0 30 -3 35 -24 35 -35 0 -40
15 -11 34 l25 17 -21 29 c-20 27 -24 28 -43 15 -31 -22 -39 -18 -34 15 4 24 1
30 -13 30 -10 0 -24 3 -33 6 -12 5 -18 -2 -22 -25z m50 -107 c19 -18 20 -28 6
-55 -13 -23 -53 -25 -74 -3 -20 20 -20 33 1 56 20 22 46 23 67 2z"/>
</g>
</svg>
